<?xml version="1.0" encoding="UTF-8"?><svg id="Layer_2" xmlns="http://www.w3.org/2000/svg" viewBox="0 0 242.5 447.21"><defs><style>.cls-1{fill:#fff;}</style></defs><g id="Layer_1-2"><path class="cls-1" d="M5.48,202.59l136.84-118.25c1.26-1.09,3.17-.96,4.28.28,1.1,1.25.97,3.14-.29,4.23L5.48,210.55v-7.96Z"/><path class="cls-1" d="M167.96,27.23c-30.87,26.68-37.26,69.39-37.26,69.39,0,0,43.67-.55,74.54-27.23C236.12,42.71,242.5,0,242.5,0c0,0-43.67.55-74.54,27.23Z"/><path class="cls-1" d="M147.86,118.4c-33.95-2.25-63.04,19.1-63.04,19.1,0,0,25.95,25,59.89,27.26,33.95,2.25,63.04-19.1,63.04-19.1,0,0-25.95-25-59.89-27.25Z"/><path class="cls-1" d="M5.48,212.55v-4.22c7.95-5.11,31.57-20.06,59.39-18.21,33.95,2.25,60.83,28.2,60.83,28.2,0,0-29.09,21.35-63.04,19.1-27.48-1.82-49.71-18.55-57.19-24.86Z"/><path class="cls-1" d="M5.48,248.39c31.39,4.32,51.91,24.17,54.53,26.69,0,0-24.37,17.87-54.53,19.18v-45.87Z"/><path class="cls-1" d="M110.28,75.91c-2.28,33.56-27.57,59.2-27.57,59.2,0,0-21.6-28.76-19.32-62.32,2.28-33.56,27.57-59.2,27.57-59.2,0,0,21.6,28.76,19.32,62.31Z"/><path class="cls-1" d="M5.48,90.12c2.09-2.5,3.44-3.87,3.44-3.87-2.46-3.27,21.55,29.52,19.32,62.31-1.65,24.24-15.3,44.35-22.76,53.65v-112.09Z"/><path class="cls-1" d="M0,441.52l86.28-67.84c1.18-.93,2.88-.74,3.8.43.92,1.17.71,2.86-.47,3.79L2.95,446.05l-2.95-4.52Z"/><path class="cls-1" d="M111.71,323.97c-28.94,22.75-36.82,60.92-36.82,60.92,0,0,39.03,1.28,67.97-21.47,28.94-22.75,36.82-60.92,36.82-60.92,0,0-39.03-1.28-67.97,21.47Z"/><path class="cls-1" d="M89.12,405.19c-30.21-3.41-57.28,14.62-57.28,14.62,0,0,21.9,23.56,52.11,26.96,30.21,3.41,57.28-14.62,57.28-14.62,0,0-21.9-23.56-52.11-26.96Z"/><path class="cls-1" d="M57.72,365.43c-3.74,30.1-27.64,52.15-27.64,52.15,0,0-17.83-26.76-14.08-56.86,3.74-30.1,27.64-52.15,27.64-52.15,0,0,17.83,26.76,14.08,56.86Z"/></g></svg>