<?xml version="1.0" encoding="UTF-8"?><svg id="Layer_2" xmlns="http://www.w3.org/2000/svg" viewBox="0 0 333.61 408.58"><defs><style>.cls-1{stroke:#e65125;}.cls-1,.cls-2,.cls-3,.cls-4,.cls-5,.cls-6,.cls-7,.cls-8,.cls-9,.cls-10,.cls-11,.cls-12{fill:none;stroke-linecap:round;stroke-linejoin:round;stroke-width:3.28px;}.cls-2{stroke:#c89587;}.cls-3{stroke:#fee1c5;}.cls-13{fill:#faaa47;}.cls-4{stroke:#fdc57f;}.cls-14{fill:#eb6734;}.cls-15{fill:#676630;}.cls-5{stroke:#a09d45;}.cls-16{fill:#96635e;}.cls-17{opacity:.92;}.cls-6{stroke:#704844;}.cls-7{stroke:#196356;}.cls-18{fill:#3b816e;}.cls-8{stroke:#eb6734;}.cls-9{stroke:#ed8b45;}.cls-10{stroke:#4e512b;}.cls-19{fill:#372d4f;}.cls-20{fill:#5b2f28;}.cls-11{stroke:#faaa47;}.cls-21{fill:#fdc57f;}.cls-12{stroke:#f1f1f4;}.cls-22{fill:#fee1c5;}</style></defs><g id="Layer_1-2"><path class="cls-20" d="M320.74,295.23c-21.94-11.7-53.6-25.92-76.17-32.69-37.4,11.3-73.93,25.43-108.36,41.26-9.68,25.61-22.62,47.82-30.33,74.69,71.9-23.43,154.47-47.83,214.86-83.26Z"/><path class="cls-18" d="M160.82,268.37c4.22,8.46,11.71,15.25,20.54,18.63,1.77.68,3.68,1.23,5.55.9s3.65-1.77,3.8-3.66c.12-1.62-.92-3.08-1.97-4.32-2.89-3.42-6.23-6.47-9.9-9.03,4.23,2.96,9.85,3.85,14.77,2.34,1.55-.48,3.21-1.39,3.52-2.98.36-1.78-1.15-3.37-2.63-4.43-3.76-2.71-8.24-4.41-12.84-4.89,4.61.98,9.63-.11,13.39-2.93,1.11-.83,2.17-1.92,2.31-3.3.25-2.6-2.76-4.22-5.3-4.86-10.92-2.75-22.88-.99-32.51,4.77l1.27,13.76Z"/><path class="cls-7" d="M161.48,269.64c3.78,6.63,14.62,15.39,20.28,17.18,1.71.54,3.66.9,5.21.01,1.95-1.12,2.42-3.88,1.61-5.98-1.25-3.25-10.72-10.05-11.19-10.85.74.24,11.08,5.21,16.62,2.98,2.37-.95,3.06-4.55.49-7.17"/><path class="cls-13" d="M137.03,265.63c.48-5.66,1.46-11.23,3.17-16.65,1.63-5.17,3.43-10.4,6.23-15.07.67-1.11,1.43-2.15,2.23-3.15,4.69,1.8,9.02,4.48,12.31,8.25,4.61,5.29,6.79,12.92,5.62,20.3-.65,4.08-1.31,8.21-3.02,11.96-1.71,3.75-4.63,7.14-8.53,8.49-4.18,1.44-8.77.38-13.07-.7-1.7-.43-3.41-.85-5.11-1.28-.5-4.01-.15-8.22.18-12.14Z"/><path class="cls-4" d="M162.12,271.87c-2.55,10.97-16.8,9.24-24.74,6.81"/><path class="cls-8" d="M166.88,248.05c-4.11-7.23-10.43-13.14-17.87-16.85"/><path class="cls-22" d="M221.61,287.19c4.52-.84,8.07-5.32,7.84-9.92-.04-.79-.15-1.68.34-2.3.52-.66,1.48-.72,2.31-.91,2.09-.46,3.85-2.14,4.43-4.19.58-2.06-.06-4.41-1.6-5.89-1.55-1.49-4.15-2.62-3.94-4.76.14-1.46,1.63-2.4,3.04-2.84s2.96-.64,4.06-1.61c1.41-1.24,1.64-3.35,1.48-5.22-.15-1.87-.58-3.78-.13-5.6.81-3.21,4.04-5.11,6.08-7.73,2.8-3.61,3.16-8.93.88-12.88,16.94,6.64,32.68,12.64,48.71,17.74,2.78,4.29.42,10.86-4.43,12.63-2.87,1.04-6.49.74-8.43,3.09-1.99,2.4-.93,6.03-1.75,9.04-1.04,3.82-4.89,6.06-8.4,7.9,2.81,1.86,2.89,6.65.14,8.6-1.33.94-3.18,1.36-3.87,2.83-.6,1.28-.04,2.76.22,4.15.53,2.82-.35,5.87-2.28,8-1.94,2.12-4.9,3.26-7.62,3.29-12.94.61-26.05-3.5-37.07-13.43Z"/><path class="cls-15" d="M251.83,181.45c9.28-1.19,19.06,3.29,24.22,11.1,5.16,7.8,5.46,18.55.57,27.17-13.26-6.36-22.55-20.28-24.79-38.26Z"/><path class="cls-10" d="M286.53,188.84c1.06,11.12-2.76,22.61-10.25,30.9"/><path class="cls-14" d="M238.22,224.39c2.66-7.67,10.26-13.37,18.37-13.75,8.11-.39,16.22,4.56,18.99,12.22,8.63-2.22,18.45,1.34,23.66,8.57,5.21,7.23,5.47,17.67.04,25.26-1.51-3.34-4.72-5.87-8.32-6.54-3.61-.67-7.51.53-10.12,3.11.63-3.76-1.56-7.8-5.04-9.34s-7.95-.42-11.14,2.99c.67-3.73-1.15-7.78-4.38-9.74-3.23-1.97-7.67-1.72-12.15,1.09.01-3.18-1.24-6.36-3.43-8.67-2.19-2.31-5.29-3.74-6.49-5.19Z"/><path class="cls-14" d="M216.37,278.61c1.2,1.82,3.35,2.97,5.53,2.95,2.18-.02,4.31-1.21,5.47-3.04,1.9,4.12,3.46,7.7,6.52,9.59,3.06,1.89,7.92,1.12,9.15-2.26.97,2.15,2,4.31,3.58,6.06,1.58,1.75,3.78,3.07,6.14,3.07,2.36,0,4.77-1.57,5.26-3.88,1.08,4.16,4.54,7.6,8.7,8.67,4.16,1.07,8.85-.28,11.99-2.65-2.24,7.29-7.55,13.58-14.36,17.02-2.22,1.12-4.72,1.96-7.18,1.54-2.73-.47-5.01-2.46-6.48-4.82-1.47-2.35-2.24-5.06-2.94-8.46-5.67,4.54-13.81,6.78-20.32,3.57-4.54-2.24-7.61-6.76-9.21-11.55-1.6-4.8-1.9-9.91-1.86-15.81Z"/><path class="cls-9" d="M297.07,248.23c1.02-3.65.3-7.75-1.91-10.82"/><path class="cls-9" d="M290.88,233.03c-.82-1.59-2.52-2.69-4.31-2.77"/><path class="cls-1" d="M254.42,314.23c-4.15-.73-7.19-5.02-7.18-10.15"/><path class="cls-1" d="M242.99,286.14c-2.33,2.52-6.54,2.63-9.47.84-2.93-1.79-4.68-5.07-5.44-8.42-1.49,1.99-4.01,3.16-6.49,3.02-2.48-.14-4.85-1.58-6.57-3.45-.9,7.55.92,15.39,5.05,21.78"/><path class="cls-9" d="M223.29,288.87c-.53,4.09,1.52,8.41,5.03,10.58"/><path class="cls-4" d="M254.05,250.8c1.96,1.53,2.25,4.77.6,6.62-1.57,1.77-4.57,2.44-5.07,4.76-.29,1.31.39,2.61.73,3.9,1.02,3.95-1.71,8.48-5.69,9.41"/><path class="cls-4" d="M276.55,250.6c-1.74.46-3.49.93-5.23,1.39.66,2.53,1.26,5.44-.22,7.59-1.05,1.52-2.93,2.3-4.03,3.78-.95,1.28-1.22,2.93-1.39,4.52-.17,1.59-.28,3.23-.99,4.65-.71,1.43-2.21,2.61-3.79,2.39"/><path class="cls-5" d="M273.9,221.11c-.34-11.53-4.57-22.22-11.77-29.75"/><path class="cls-1" d="M274.64,222.85c-1.8-5-5.95-9.29-10.98-11.37-5.03-2.08-10.86-1.92-15.43.44-4.57,2.36-7.81,6.86-8.57,11.93"/><path class="cls-22" d="M96.78,196.72c.15-4.6-3.47-9.02-8-9.79-.78-.13-1.67-.21-2.17-.83-.54-.65-.39-1.6-.39-2.45,0-2.14-1.26-4.22-3.14-5.23-1.88-1.01-4.32-.88-6.09.3-1.79,1.2-3.45,3.49-5.5,2.82-1.4-.45-2-2.11-2.12-3.58-.12-1.47.01-3.03-.7-4.32-.91-1.64-2.92-2.32-4.78-2.57-1.86-.25-3.82-.24-5.5-1.08-2.97-1.48-4.12-5.05-6.24-7.59-2.92-3.51-8.04-5.01-12.39-3.62,10.12-15.12,19.37-29.2,27.79-43.76,4.78-1.79,10.7,1.92,11.38,7.04.4,3.02-.67,6.49,1.21,8.9,1.92,2.46,5.69,2.2,8.45,3.65,3.51,1.84,4.87,6.08,5.91,9.9,2.42-2.35,7.11-1.4,8.43,1.71.63,1.5.65,3.4,1.93,4.39,1.12.86,2.69.63,4.1.68,2.87.09,5.66,1.6,7.32,3.95,1.66,2.35,2.14,5.48,1.57,8.15-2.18,12.77-9.02,24.69-21.08,33.32Z"/><path class="cls-15" d="M0,144.49c.83-9.32,7.31-17.91,16.04-21.28,8.73-3.37,19.29-1.35,26.66,5.28-9.06,11.58-24.65,17.67-42.7,15.99Z"/><path class="cls-10" d="M14.67,112.18c11.09,1.36,21.49,7.55,27.98,16.65"/><path class="cls-14" d="M39.02,167.01c-6.92-4.24-10.85-12.89-9.48-20.9,1.37-8,7.94-14.86,16.02-15.92-.31-8.91,5.27-17.74,13.45-21.27,8.18-3.53,18.44-1.55,24.68,5.38-3.59.75-6.74,3.35-8.17,6.72-1.43,3.38-1.1,7.45.86,10.55-3.54-1.42-7.96-.16-10.21,2.92-2.25,3.07-2.12,7.67.52,11.52-3.49-1.46-7.84-.55-10.46,2.19s-3.33,7.12-1.54,12.1c-3.11-.7-6.47-.15-9.2,1.49s-4.79,4.36-6.46,5.22Z"/><path class="cls-14" d="M87.28,199.99c2.03-.78,3.62-2.63,4.07-4.77.45-2.13-.25-4.47-1.8-6,4.43-.97,8.26-1.72,10.76-4.31,2.5-2.58,2.79-7.49-.24-9.42,2.31-.48,4.64-1.03,6.69-2.19,2.05-1.16,3.81-3.03,4.32-5.34.51-2.3-.51-5-2.66-5.97,4.29-.17,8.4-2.8,10.34-6.63,1.94-3.83,1.63-8.7-.01-12.28,6.64,3.75,11.65,10.29,13.54,17.68.62,2.41.9,5.03-.03,7.34-1.04,2.57-3.48,4.37-6.1,5.29-2.61.93-5.43,1.1-8.89,1.05,3.22,6.51,3.66,14.94-.88,20.62-3.16,3.95-8.23,5.98-13.26,6.51-5.03.53-10.09-.27-15.84-1.58Z"/><path class="cls-9" d="M74.93,114.65c-3.34-1.78-7.5-1.96-10.98-.46"/><path class="cls-9" d="M58.76,117.44c-1.73.46-3.17,1.88-3.63,3.61"/><path class="cls-1" d="M130.24,170.48c-1.6,3.89-6.45,5.94-11.45,4.84"/><path class="cls-1" d="M100.35,175.61c1.96,2.82,1.16,6.95-1.22,9.43-2.38,2.47-5.96,3.48-9.39,3.5,1.62,1.88,2.23,4.59,1.56,6.98-.67,2.39-2.59,4.4-4.78,5.67,7.18,2.5,15.23,2.41,22.35-.25"/><path class="cls-9" d="M98.78,195.44c3.88,1.39,8.54.32,11.41-2.64"/><path class="cls-4" d="M68.2,157.21c1.91-1.58,5.14-1.18,6.6.83,1.39,1.92,1.4,4.99,3.56,5.98,1.22.56,2.63.17,3.97.13,4.08-.15,7.91,3.49,7.97,7.58"/><path class="cls-4" d="M72.85,135.2c.08,1.8.16,3.6.24,5.4,2.61-.1,5.58-.06,7.36,1.85,1.26,1.35,1.61,3.35,2.82,4.75,1.04,1.21,2.6,1.82,4.11,2.33,1.51.5,3.09.96,4.33,1.96,1.24,1,2.07,2.72,1.52,4.21"/><path class="cls-5" d="M43.47,131.45c-11.33-2.14-22.68-.3-31.59,5.1"/><path class="cls-1" d="M45.34,131.11c-5.27.69-10.35,3.81-13.46,8.28-3.12,4.47-4.21,10.19-2.89,15.17s5.02,9.1,9.81,10.93"/><path class="cls-16" d="M333.61,406.94h-202.44c-.44-.79-.88-1.57-1.32-2.36-.01-.02-.02-.04-.04-.06-1.97-3.55-4.11-7.24-7.58-9.35-1.61-.98-3.59-1.45-5.48-1.35-2.85-5.37-5.71-10.74-8.57-16.08.99-.9,13.46-6.01,31.92-13.3,31.54-12.43,80.55-31.19,119.54-46,30.93-11.75,55.56-21.02,60.16-22.67.34-.12.58-.2.69-.24,1.08,6.45,2.16,12.9,3.24,19.35-.04.05-.07.11-.1.16-.07.09-.13.18-.18.28-1.25,1.95-2.07,4.16-2.49,6.39-1.07,5.66-.03,11.48,1,17.14,4.1,22.66,7.95,45.36,11.65,68.09Z"/><path class="cls-6" d="M319.92,297.06c1.25,6.05,2.49,12.1,3.74,18.15-27.43,15.96-56.09,29.79-85.65,41.33"/><path class="cls-6" d="M106.91,375.4c.33.81.66,1.62,1,2.43,2.33,5.62,4.82,11.16,7.49,16.62,5.98,1.27,10.6,5.16,14.41,10.07.62.78,1.21,1.59,1.78,2.42"/><path class="cls-2" d="M323.9,406.94c-3.22-18.31-6.44-36.62-9.66-54.93"/><path class="cls-6" d="M134.19,389.69c23.51-7.12,47.03-14.24,70.54-21.37"/><path class="cls-2" d="M126.91,326.01c-.9,1.03-11.39,33.37-19.73,49.84,60.06-20.32,119.35-43.03,177.67-68.05"/><path class="cls-22" d="M178.56,222.28c6.45-5.07,13.77-9.05,21.53-11.7,3.07-1.05,6.3-1.9,9.52-1.52,5.98.7,10.88,5.72,12.66,11.47,1.79,5.75.89,12.05-1.14,17.72-2.04,5.67-5.16,10.87-8.8,17.05-.59-5.41-1.18-10.81-1.76-16.22-3.18,1.59-6.56,2.78-10.34,3.79,1.69-3.59,3.38-7.18,4.72-11.38-2.17.2-4.33.4-7.07-.09.56-2.5.85-5.07.47-8.08-3.58,2.68-7.16,5.37-11.81,7.77.6-2.69,1.2-5.38.84-8.06-2.84-.06-5.68.06-8.81-.75Z"/><path class="cls-4" d="M219.84,215.8c3.08,5.79,3.42,12.77,1.93,19.16s-4.69,12.26-8.74,18.78c-.7-4.84-1.4-9.69-2.1-14.53-3.23.93-6.45,1.87-9.61,2.27,1.02-2.91,2.2-5.77,3.53-8.55-2.43.22-4.86.45-7.8.73.36-3.19.73-6.38,1.09-9.57-3.64,2.21-7.28,4.43-11.39,7.14.28-2.57.56-5.13.7-7.5-2.36-.31-4.71-.62-7.07-.93"/><path class="cls-12" d="M212.31,216.26c-1.69-1.29-3.82-2-5.94-1.98-2.13.02-4.24.77-5.9,2.09"/><path class="cls-22" d="M181.21,166.19c-4.31-1.79-8.77-3.36-13.4-3.95-4.63-.59-9.49-.15-13.68,1.93-4.49,2.24-7.96,6.27-10.01,10.84-3.53,7.86-2.9,17.46,1.64,24.78,4.53,7.33,12.84,12.18,22.24,12.34-1.48-2.34-2.97-4.69-4.45-7.03,3.12.77,6.42.8,9.94.22-2.31-3.28-4.62-6.55-6.92-9.83,3.21-.51,6.42-1.03,10.62-2.12-1.81-2.26-3.61-4.52-5.42-6.78,3.59.33,7.22.27,10.8-.2-3.19-2.38-6.13-5.09-8.34-8.49,2.69-.79,5.39-1.58,8.08-2.36.22-.07.47-.15.56-.37.09-.2,0-.43-.1-.63-1.16-2.52-2.33-5.04-1.56-8.36Z"/><path class="cls-12" d="M171.29,168.13c-2.91-1.33-6.31-1.57-9.38-.65-3.07.91-5.78,2.97-7.5,5.67"/><path class="cls-12" d="M152.26,177.9c-.73,1.12-1.3,2.34-1.72,3.61"/><path class="cls-4" d="M142.09,182.7c-1,7.22,1.71,14.72,6.57,20.16,4.86,5.44,11.7,8.9,18.84,10.38-.99-2.16-1.99-4.31-2.98-6.47"/><path class="cls-4" d="M165.62,205.19c2.6.05,5.2.09,7.81.14-2.08-3.74-4.28-6.88-6.69-10.08,3.05-.51,6.12-.91,9.2-1.2"/><path class="cls-22" d="M129.16,60.29c-6.45-5.07-13.77-9.05-21.53-11.7-3.07-1.05-6.3-1.9-9.52-1.52-5.98.7-10.88,5.72-12.66,11.47-1.79,5.75-.89,12.05,1.14,17.72,2.04,5.67,5.16,10.87,8.8,17.05.59-5.41,1.18-10.81,1.76-16.22,3.18,1.59,6.56,2.78,10.34,3.79-1.69-3.59-3.38-7.18-4.72-11.38,2.17.2,4.33.4,7.07-.09-.56-2.5-.85-5.07-.47-8.08,3.58,2.68,7.16,5.37,11.81,7.77-.6-2.69-1.2-5.38-.84-8.06,2.84-.06,5.68.06,8.81-.75Z"/><path class="cls-4" d="M87.88,53.81c-3.08,5.79-3.42,12.77-1.93,19.16s4.69,12.26,8.74,18.78c.7-4.84,1.4-9.69,2.1-14.53,3.23.93,6.45,1.87,9.61,2.27-1.02-2.91-2.2-5.77-3.53-8.55,2.43.22,4.86.45,7.8.73-.36-3.19-.73-6.38-1.09-9.57,3.64,2.21,7.28,4.43,11.39,7.14-.28-2.57-.56-5.13-.7-7.5,2.36-.31,4.71-.62,7.07-.93"/><path class="cls-12" d="M95.4,54.27c1.69-1.29,3.82-2,5.94-1.98,2.13.02,4.24.77,5.9,2.09"/><path class="cls-22" d="M126.51,4.2c4.31-1.79,8.77-3.36,13.4-3.95,4.63-.59,9.49-.15,13.68,1.93,4.49,2.24,7.96,6.27,10.01,10.84,3.53,7.86,2.9,17.46-1.64,24.78-4.53,7.33-12.84,12.18-22.24,12.34,1.48-2.34,2.97-4.69,4.45-7.03-3.12.77-6.42.8-9.94.22,2.31-3.28,4.62-6.55,6.92-9.83-3.21-.51-6.42-1.03-10.62-2.12,1.81-2.26,3.61-4.52,5.42-6.78-3.59.33-7.22.27-10.8-.2,3.19-2.38,6.13-5.09,8.34-8.49-2.69-.79-5.39-1.58-8.08-2.36-.22-.07-.47-.15-.56-.37-.09-.2,0-.43.1-.63,1.16-2.52,2.33-5.04,1.56-8.36Z"/><path class="cls-12" d="M136.43,6.14c2.91-1.33,6.31-1.57,9.38-.65,3.07.91,5.78,2.97,7.5,5.67"/><path class="cls-12" d="M155.46,15.91c.73,1.12,1.3,2.34,1.72,3.61"/><path class="cls-4" d="M165.63,20.7c1,7.22-1.71,14.72-6.57,20.16-4.86,5.44-11.7,8.9-18.84,10.38.99-2.16,1.99-4.31,2.98-6.47"/><path class="cls-4" d="M142.1,43.2c-2.6.05-5.2.09-7.81.14,2.08-3.74,4.28-6.88,6.69-10.08-3.05-.51-6.12-.91-9.2-1.2"/><g class="cls-17"><path class="cls-21" d="M128.84,231.81c1.79,6.61,2.04,14.35-2.36,19.59-3.24,3.86-8.33,5.59-12.25,8.77-7.77,6.29-9.85,17.18-15.55,25.39-7.06,10.17-20.19,15.74-33.28,12.94,7.67-1.99,14.25-7.76,17.24-15.1,2.25-5.52,2.51-11.67,4.64-17.24,1.94-5.06,5.43-9.52,9.93-12.53,4.82-3.24,10.58-4.75,15.73-7.43,5.92-3.08,11.03-7.73,15.9-14.39Z"/><path class="cls-21" d="M128.13,230.42c5.62,8.51,5.08,20.62-1.29,28.58-3.2,4.01-7.76,7.16-9.47,12-1.49,4.23-.48,8.88.25,13.31.98,5.99,1.4,12.25-.37,18.06-1.76,5.81-6.05,11.15-12.74,13.12,2.31-3.06,2.75-7.2,2.15-10.98-.6-3.79-2.12-7.35-3.4-10.96-1.8-5.03-3.17-10.27-3.37-15.61-.2-5.34.84-10.82,3.6-15.4,3.55-5.9,9.55-9.81,14.76-14.32,5.21-4.51,10.04-10.53,9.88-17.81Z"/><path class="cls-21" d="M127.79,229.91c-2.81,3.95-7.91,5.48-12.7,6.2-4.79.72-9.82.94-14.08,3.25-6.44,3.48-9.67,10.86-15.14,15.73-4.7,4.19-10.83,6.32-16.41,9.25-5.58,2.93-11.06,7.26-12.21,14.2,2.95-3.93,8.59-4.53,13.48-4.05,4.89.48,9.94,1.7,14.6.16,4.09-1.35,7.25-4.63,9.82-8.09,2.58-3.46,4.79-7.23,7.89-10.22,3.04-2.94,6.8-5,10.48-7.08,3.68-2.08,7.39-4.26,10.25-7.37,2.86-3.11,4.8-7.33,4.02-12Z"/><path class="cls-11" d="M127.24,229.75c.84,6.18-2.04,12.72-7.17,16.26-3.98,2.75-8.99,3.71-12.94,6.49-7.84,5.52-10.17,17.17-18.81,21.34-4.86,2.34-10.54,1.69-15.94,1.61-5.4-.08-11.44.79-14.75,5.05"/><path class="cls-3" d="M108.14,241.94c-4.25,1.46-7.68,4.68-10.57,8.12-2.9,3.44-5.42,7.22-8.63,10.37-3.21,3.15-7.31,5.7-11.8,5.9"/><path class="cls-3" d="M121.28,255.31c-2.8,2.96-5.62,5.95-7.85,9.36-2.23,3.42-3.85,7.33-4.01,11.4-.26,6.64,3.34,12.84,3.95,19.46.69,7.55-2.86,15.34-9.01,19.77"/><path class="cls-11" d="M102.85,315.44c3.41-3.54,3.82-9.13,2.72-13.98-1.1-4.85-3.46-9.33-4.98-14.08-3.25-10.19-2.35-21.6,2.45-31.04"/><path class="cls-19" d="M129.47,235.71c2.05-2.08,3.98-4.27,5.79-6.56.62-.79,1.26-1.69,1.18-2.69-.12-1.38-1.5-2.22-2.61-3.04-1.12-.82-2.13-1.83-3.39-2.42-1.26-.59-2.91-.66-3.91.3-.73.7-.95,1.77-1.11,2.77-.62,3.81-.95,7.66,4.06,11.63Z"/><path class="cls-13" d="M129.26,249.16c1.65,2.44-1.94,4.94-3.67,2.57-1.65-2.44,1.94-4.94,3.67-2.57Z"/><path class="cls-13" d="M121.44,254.87c1.65,2.44-1.94,4.94-3.67,2.57-1.65-2.44,1.94-4.94,3.67-2.57Z"/><path class="cls-13" d="M116.53,251.91c1.65,2.44-1.94,4.94-3.67,2.57-1.65-2.44,1.94-4.94,3.67-2.57Z"/><path class="cls-13" d="M109.84,259.91c1.65,2.44-1.94,4.94-3.67,2.57-1.65-2.44,1.94-4.94,3.67-2.57Z"/><path class="cls-13" d="M116.72,262.65c1.65,2.44-1.94,4.94-3.67,2.57-1.65-2.44,1.94-4.94,3.67-2.57Z"/><path class="cls-13" d="M109.5,268.89c1.65,2.44-1.94,4.94-3.67,2.57-1.65-2.44,1.94-4.94,3.67-2.57Z"/><path class="cls-13" d="M120.41,237.86c1.65,2.44-1.94,4.94-3.67,2.57-1.65-2.44,1.94-4.94,3.67-2.57Z"/><path class="cls-13" d="M112.89,245.01c1.65,2.44-1.94,4.94-3.67,2.57-1.65-2.44,1.94-4.94,3.67-2.57Z"/><path class="cls-13" d="M110.59,238.35c1.65,2.44-1.94,4.94-3.67,2.57-1.65-2.44,1.94-4.94,3.67-2.57Z"/><path class="cls-13" d="M101.96,246.28c1.65,2.44-1.94,4.94-3.67,2.57-1.65-2.44,1.94-4.94,3.67-2.57Z"/><path class="cls-13" d="M98.87,255.05c1.65,2.44-1.94,4.94-3.67,2.57-1.65-2.44,1.94-4.94,3.67-2.57Z"/><path class="cls-13" d="M94.26,250.48c1.65,2.44-1.94,4.94-3.67,2.57-1.65-2.44,1.94-4.94,3.67-2.57Z"/></g><g class="cls-17"><path class="cls-21" d="M145.25,97.7c7.72-3.86,17.22-6.08,24.79-1.96,5.58,3.04,8.98,8.9,13.87,12.95,9.71,8.03,23.67,7.9,35.23,12.91,14.31,6.2,24.47,21.03,24.26,37.89-4.37-8.97-13.13-15.68-22.94-17.54-7.38-1.4-15.05-.2-22.45-1.45-6.73-1.13-13.11-4.34-17.95-9.15-5.2-5.15-8.5-11.88-13.09-17.58-5.28-6.55-12.28-11.7-21.73-16.07Z"/><path class="cls-21" d="M143.71,98.92c9.11-9.06,24.21-11.39,35.63-5.51,5.75,2.96,10.77,7.81,17.18,8.72,5.6.79,11.09-1.62,16.38-3.62,7.16-2.71,14.78-4.77,22.4-4.04,7.62.73,15.27,4.7,19.38,12.48-4.35-2.09-9.57-1.6-14.1.07-4.53,1.68-8.56,4.44-12.7,6.93-5.77,3.47-11.9,6.47-18.45,8.04-6.55,1.57-13.57,1.64-19.92-.62-8.18-2.92-14.49-9.37-21.36-14.68-6.87-5.32-15.5-9.79-24.45-7.77Z"/><path class="cls-21" d="M143.16,99.47c5.57,2.49,8.73,8.41,10.82,14.15s3.61,11.89,7.51,16.59c5.9,7.09,15.82,9.25,23.2,14.79,6.34,4.77,10.5,11.81,15.51,17.97,5.01,6.16,11.72,11.86,20.58,11.56-5.58-2.67-7.73-9.49-8.35-15.65-.62-6.16-.38-12.7-3.43-18.08-2.68-4.72-7.53-7.8-12.43-10.12-4.91-2.32-10.12-4.12-14.59-7.2-4.38-3.02-7.86-7.16-11.35-11.19-3.48-4.03-7.1-8.07-11.65-10.84-4.55-2.76-10.25-4.11-15.82-1.98Z"/><path class="cls-11" d="M143.1,100.19c7.42-2.58,16.22-.64,21.87,4.82,4.38,4.23,6.81,10.18,11.24,14.38,8.77,8.31,23.74,8.3,31.04,17.93,4.1,5.42,4.71,12.61,5.95,19.29s3.82,13.94,9.91,16.97"/><path class="cls-3" d="M162.91,120.76c2.87,4.89,7.68,8.32,12.66,11.05,4.97,2.72,10.26,4.9,14.95,8.08,4.69,3.19,8.86,7.61,10.22,13.12"/><path class="cls-3" d="M176.16,101.2c4.36,2.73,8.74,5.47,13.52,7.37,4.77,1.9,10.01,2.94,15.08,2.12,8.26-1.33,15.03-7.32,23.05-9.71,9.15-2.73,19.67-.28,26.66,6.22"/><path class="cls-11" d="M255.02,109.02c-5.22-3.33-12.22-2.45-17.94.12-5.72,2.56-10.67,6.6-16.15,9.65-11.78,6.55-26.1,8.27-38.95,4.69"/><path class="cls-19" d="M149.9,95.95c-3.08-2.01-6.26-3.86-9.54-5.53-1.13-.57-2.4-1.14-3.61-.79-1.67.49-2.38,2.4-3.11,3.98-.73,1.59-1.73,3.09-2.14,4.79-.42,1.7-.1,3.76,1.34,4.76,1.05.73,2.42.73,3.69.69,4.86-.18,9.7-.72,13.36-7.91Z"/><path class="cls-13" d="M166.57,92.87c2.6-2.64,6.58,1.17,4.08,3.9-2.6,2.64-6.58-1.17-4.08-3.9Z"/><path class="cls-13" d="M175.57,101.12c2.6-2.64,6.58,1.17,4.08,3.9-2.6,2.64-6.58-1.17-4.08-3.9Z"/><path class="cls-13" d="M173.14,107.9c2.6-2.64,6.58,1.17,4.08,3.9-2.6,2.64-6.58-1.17-4.08-3.9Z"/><path class="cls-13" d="M184.68,114.19c2.6-2.64,6.58,1.17,4.08,3.9-2.6,2.64-6.58-1.17-4.08-3.9Z"/><path class="cls-13" d="M186.36,105.01c2.6-2.64,6.58,1.17,4.08,3.9-2.6,2.64-6.58-1.17-4.08-3.9Z"/><path class="cls-13" d="M195.86,112.38c2.6-2.64,6.58,1.17,4.08,3.9-2.6,2.64-6.58-1.17-4.08-3.9Z"/><path class="cls-13" d="M154.81,106.61c2.6-2.64,6.58,1.17,4.08,3.9-2.6,2.64-6.58-1.17-4.08-3.9Z"/><path class="cls-13" d="M165.52,114.12c2.6-2.64,6.58,1.17,4.08,3.9-2.6,2.64-6.58-1.17-4.08-3.9Z"/><path class="cls-13" d="M157.85,118.62c2.6-2.64,6.58,1.17,4.08,3.9-2.6,2.64-6.58-1.17-4.08-3.9Z"/><path class="cls-13" d="M169.8,127.32c2.6-2.64,6.58,1.17,4.08,3.9-2.6,2.64-6.58-1.17-4.08-3.9Z"/><path class="cls-13" d="M181.4,128.94c2.6-2.64,6.58,1.17,4.08,3.9-2.6,2.64-6.58-1.17-4.08-3.9Z"/><path class="cls-13" d="M176.9,135.78c2.6-2.64,6.58,1.17,4.08,3.9-2.6,2.64-6.58-1.17-4.08-3.9Z"/></g></g></svg>