<?xml version="1.0" encoding="UTF-8"?><svg id="Layer_2" xmlns="http://www.w3.org/2000/svg" xmlns:xlink="http://www.w3.org/1999/xlink" viewBox="0 0 725.03 471.38"><defs><style>.cls-1{fill:#dba089;}.cls-2{fill:#b36a56;}.cls-3{fill:#8d8030;}.cls-4{fill:#fff;}.cls-5{filter:url(#drop-shadow-1);}.cls-6{fill:#c92e27;}.cls-7{fill:#fbad2e;}.cls-8{fill:#f8b72f;}.cls-9{fill:#f58220;}.cls-10{fill:#f9b698;}.cls-11{fill:#f04e4e;}.cls-12{fill:#753a42;}</style><filter id="drop-shadow-1" x="-8.1" y="-8.14" width="755.28" height="501.6" filterUnits="userSpaceOnUse"><feOffset dx="7" dy="7"/><feGaussianBlur result="blur" stdDeviation="5"/><feFlood flood-color="#231f20" flood-opacity=".5"/><feComposite in2="blur" operator="in"/><feComposite in="SourceGraphic"/></filter></defs><g id="Layer_1-2"><g class="cls-5"><path class="cls-10" d="M432.81,341.15c-9.6-5.64-15.61-16.91-14.95-28.05.13-2.17,1.15-4.92,3.32-4.84,1.37.05,2.37,1.28,3.17,2.39,7.79,10.73,16.61,21.15,28.19,27.59,8.2,4.57,17.57,7,25.2,12.47,9.18,6.57,15.16,17.43,15.83,28.71l-24.95,51.61-59.27-6.6,23.46-83.28Z"/><path class="cls-12" d="M476.7,352.7s-.02.48-.12,1.34c-.31,2.91-1.35,10.26-4.61,19.25-.6,1.64-1.26,3.33-2.02,5.07-9.49,21.92-32.18,49.84-86.2,49.32-56.66.54-78.86-30.21-87.5-52.49-.7-1.78-1.3-3.51-1.82-5.16-2.27-7.09-3.14-12.81-3.45-15.56-.13-1.15-.17-1.77-.17-1.77h.36l1.42.02,25.25.23h.02l41.33.36h0l17.47.16,4.26.04,2.84.02h.1l5.47-.05h0l12.39-.11s0,0,0,0l28.17-.25,19.47-.17h0l25.24-.23h1.43s.66-.02.66-.02Z"/><path class="cls-6" d="M477,349.54c0,4.11-4.76,7.96-13.06,11.26-16.28,6.48-46.17,10.81-80.34,10.81s-64.06-4.33-80.34-10.81c-8.29-3.3-13.06-7.14-13.06-11.26,0-12.18,41.81-22.06,93.4-22.06s93.4,9.88,93.4,22.06Z"/><path class="cls-7" d="M463.94,360.8c-9.6,3.82-23.92,6.89-41.07,8.77-11.94,1.32-25.24,2.04-39.27,2.04-34.17,0-64.06-4.33-80.34-10.81,8.71-9.3,41.37-16.21,80.34-16.21,11.62,0,22.69.62,32.72,1.73,23.6,2.61,41.51,7.95,47.62,14.48Z"/><path class="cls-9" d="M431.8,357.2c-.42-4.83-6.46-8.34-15.48-10.88,23.6,2.61,41.51,7.95,47.62,14.48-9.6,3.82-23.92,6.89-41.07,8.77,5.77-3.58,9.33-7.7,8.93-12.36Z"/><path class="cls-4" d="M442.59,331.28c-6.66-1.27-13.95-2.3-21.61-3.09-11.91-1.24-24.7-1.89-37.38-1.89-46.49,0-94.58,8.7-94.58,23.25,0,1.72.68,3.36,1.95,4.92,9.43,11.57,51.65,18.32,92.63,18.32,13.95,0,28.04-.78,40.94-2.27,25.46-2.94,46.25-8.63,52.04-16.48.73-1,1.23-2.04,1.45-3.11.11-.45.16-.91.16-1.38,0-8.03-14.65-14.28-35.6-18.27ZM475.82,349.55c0,1.05-.41,2.11-1.21,3.16-1.84,2.48-5.8,4.94-11.6,7.19-8.75,3.39-21.67,6.34-37.8,8.24-.08.01-.16.02-.24.03-12.12,1.42-26.05,2.25-41.37,2.25-35.85,0-64.05-4.56-79.4-10.52-5.8-2.25-9.77-4.71-11.62-7.19-.79-1.05-1.19-2.11-1.19-3.16,0-10.09,37.05-20.88,92.21-20.88,14.21,0,27.22.72,38.7,1.95,9.12.99,17.29,2.3,24.32,3.83,18.34,4.01,29.03,9.58,29.19,14.97.01.04.01.09.01.13Z"/><path class="cls-4" d="M374.02,363.5c0,1.49-2.81,2.7-6.29,2.7s-6.29-1.21-6.29-2.7,2.81-2.7,6.29-2.7,6.29,1.21,6.29,2.7Z"/><path class="cls-4" d="M334.51,354.79c0,.5-1.21.9-2.69.9s-2.69-.4-2.69-.9,1.21-.9,2.69-.9,2.69.4,2.69.9Z"/><path class="cls-12" d="M338.61,357.54c.24.07.49.12.73.17.06,0,.1.02.13.02.12.01.25.02.37.03.22.01.44.02.66,0,.46-.01.6-.03,1.11-.15,0,0,.02,0,.02,0-.18-.81-.89-1.41-1.75-1.41-.78,0-1.44.5-1.69,1.2.13.04.36.13.41.14Z"/><path class="cls-12" d="M410.16,355.23c.24.07.49.12.73.17.06,0,.1.02.13.02.12.01.25.02.37.03.22.01.44.01.66,0,.46-.01.6-.03,1.11-.15,0,0,.02,0,.02,0-.18-.81-.89-1.41-1.75-1.41-.78,0-1.44.5-1.69,1.2.13.04.36.13.41.14Z"/><path class="cls-12" d="M447.88,360.64c.24.07.49.12.73.17.06,0,.1.02.13.02.12.01.25.02.37.03.22.01.44.01.66,0,.46-.01.6-.03,1.11-.15,0,0,.02,0,.02,0-.18-.81-.89-1.41-1.75-1.41-.78,0-1.44.5-1.69,1.2.13.04.36.13.41.14Z"/><path class="cls-12" d="M425.73,355.83c.24.07.49.12.73.17.06,0,.1.02.13.02.12.01.25.02.37.03.22.01.44.01.66,0,.46-.01.6-.03,1.11-.15,0,0,.02,0,.02,0-.18-.81-.89-1.41-1.75-1.41-.78,0-1.44.5-1.69,1.2.13.04.36.13.41.14Z"/><path class="cls-12" d="M417.93,364.77c.24.07.49.12.73.17.06,0,.1.02.13.02.12.01.25.02.37.03.22.01.44.01.66,0,.46-.01.6-.03,1.11-.15,0,0,.02,0,.02,0-.18-.81-.89-1.41-1.75-1.41-.78,0-1.44.5-1.69,1.2.13.04.36.13.41.14Z"/><path class="cls-12" d="M320.3,359.43c.24.07.49.12.73.17.06,0,.1.02.13.02.12.01.25.02.37.03.22.01.44.01.66,0,.46-.01.6-.03,1.11-.15,0,0,.02,0,.02,0-.18-.81-.89-1.41-1.75-1.41-.78,0-1.44.5-1.69,1.2.13.04.36.13.41.14Z"/><path class="cls-12" d="M343.09,355.17c.24.07.49.12.73.17.06,0,.1.02.13.02.12.01.25.02.37.03.22.01.44.01.66,0,.46-.01.6-.03,1.11-.15,0,0,.02,0,.02,0-.18-.81-.89-1.41-1.75-1.41-.78,0-1.44.5-1.69,1.2.13.04.36.13.4.14Z"/><path class="cls-12" d="M406.25,353.06c.24.07.49.12.73.17.06,0,.1.02.13.02.12.01.25.02.37.03.22.01.44.01.66,0,.46-.01.6-.03,1.11-.15,0,0,.02,0,.02,0-.18-.81-.89-1.41-1.75-1.41-.78,0-1.44.5-1.69,1.2.13.04.36.13.41.14Z"/><path class="cls-12" d="M389.79,365.67c.24.07.49.12.73.17.06,0,.1.02.13.02.12.01.25.02.37.03.22.01.44.01.66,0,.46-.01.6-.03,1.11-.15,0,0,.02,0,.02,0-.18-.81-.89-1.41-1.75-1.41-.78,0-1.44.5-1.69,1.2.13.04.36.13.41.14Z"/><path class="cls-12" d="M350.59,362.74c.24.07.49.12.73.17.06,0,.1.02.13.02.12.01.25.02.37.03.22.01.44.01.66,0,.46-.01.6-.03,1.11-.15,0,0,.02,0,.02,0-.18-.81-.89-1.41-1.75-1.41-.78,0-1.44.5-1.69,1.2.13.04.36.13.41.14Z"/><path class="cls-12" d="M353.37,365c.24.07.49.12.73.17.06,0,.1.02.13.02.12.01.25.02.37.03.22.01.44.01.66,0,.46-.01.6-.03,1.11-.15,0,0,.02,0,.02,0-.18-.81-.89-1.41-1.75-1.41-.78,0-1.44.5-1.69,1.2.13.04.36.13.41.14Z"/><path class="cls-3" d="M382.1,356.64c-7.76,1.89-16.57.59-23.05-3.41,7.9-3.41,16.47-1.55,23.05,3.41Z"/><path class="cls-3" d="M405.63,354.69c-7.08,3.72-15.93,4.59-23.19,2.28,6.85-5.22,15.61-5.5,23.19-2.28Z"/><path class="cls-3" d="M382.23,356.7c-3.09-5.34-2.22-12.68,2.03-17.15,2.16,5.63,1.15,12.03-2.03,17.15Z"/><path class="cls-2" d="M471.97,373.28c-.6,1.64-1.26,3.33-2.02,5.07-.7.17-1.4.33-2.1.49-19.63,4.43-39.7,6.78-59.78,7.83-21.46,1.12-43.11,1.05-64.48-1.36-16.06-1.81-32-5.02-47.34-10.12-.7-1.78-1.3-3.51-1.82-5.16,18.77,6.56,38.5,10.08,58.28,11.69,20.83,1.69,41.85,1.45,62.69,0,19.02-1.33,38.04-3.88,56.58-8.44Z"/><path class="cls-10" d="M468.62,431.03s-42.21,9.91-75.44,13.51c-33.23,3.6-61.97-23.41-70.05-29.72-8.08-6.3-16.17-18.01-8.98-20.71,7.18-2.7,19.76,8.1,28.74,14.41,8.98,6.3,22.45,11.71,38.62,14.41,0,0,40.41-9,54.78-5.4,14.37,3.6,32.33,13.51,32.33,13.51Z"/><path class="cls-8" d="M396.62,319.68c-7.26-5.34-10.73-14.64-11.33-23.65-.6-9.01,1.28-17.97,2.74-26.88,1.46-8.91,2.5-18.14.26-26.89,8.7,7.98,14.55,19.53,13.27,31.29-.72,6.61-3.59,12.76-5.52,19.13-1.93,6.36-2.48,21.1.57,27.01Z"/><path class="cls-8" d="M379.32,320.25c-9.11,1.29-18.59-5.65-20.14-14.74-.86-5.04.46-10.17.82-15.28.36-5.1-.58-10.87-4.66-13.95,8.4,2.78,14.73,10.63,15.19,19.49.21,3.94-.63,7.97.31,11.8.95,3.85,4.85,11.09,8.48,12.68Z"/><path class="cls-8" d="M410.26,320.03c-5.46-4.96-5.54-14.69-.18-20.64,2.98-3.3,7.11-5.3,10.74-7.88,3.63-2.58,7.06-6.33,7.08-10.56,2.35,6.76.23,15.01-5.53,20.16-2.56,2.29-5.7,3.98-7.82,6.67-2.12,2.7-5.05,9.11-4.3,12.24Z"/><path class="cls-1" d="M452.96,419.27c-1.79-.86-3.64-1.57-5.55-2.12-3.58-1.03-7.73-1.78-11.34-.58-.5.16-.54.98-.03,1.17,3.37,1.19,6.99,1.55,10.39,2.71,1.74.59,3.45,1.26,5.09,2.07,1.45.71,3.34,2.02,5,1.58.42-.11.76-.68.68-1.11-.31-1.84-2.72-2.99-4.24-3.72Z"/><path class="cls-8" d="M725.03,471.38h-200.7c-21.24-10.56-41.7-19.74-61.1-27.74l4.29-12.34.13-.37.12-.35,22.4-64.38c.06.03.11.07.17.11,33.03,20.42,72.04,41.79,116.91,61.7,42.38,18.79,82.16,32.82,117.78,43.37Z"/><polygon class="cls-12" points="124.79 0 223.73 219.36 229.11 208.56 133.11 0 124.79 0"/><path class="cls-12" d="M220.9,213.96c6.39,27.36,30.55,47.72,59.4,47.72s53.01-20.36,59.4-47.72h-118.8Z"/><path class="cls-2" d="M339.57,212.16c0,1.76-1.49,3.45-4.2,4.98-8.78,5-30.33,8.52-55.52,8.52s-44.85-3.22-54.29-7.87c-3.49-1.71-5.43-3.62-5.43-5.63,0-7.46,26.74-13.51,59.72-13.51s59.72,6.04,59.72,13.51Z"/><ellipse class="cls-7" cx="280.3" cy="217.56" rx="50.29" ry="8.1"/><path class="cls-1" d="M188.7,124.81s17.06,23.41,22.45,22.51c5.39-.9,3.59-15.31,3.59-15.31l-26.04-7.2Z"/><path class="cls-10" d="M229.71,142.82c-8.98,1.2-28.14-12.61-44.3-16.81-16.16-4.21-38.32-10.8-38.32-10.8,0,0-13.17,3.6-41.31,2.4-28.14-1.2-46.1-8.4-46.1-8.4-8.98-43.22,1.2-59.43,1.2-59.43,0,0,.59-3,47.29-7.21,46.7-4.2,74.24,12.01,85.62,19.81,4.57,3.14,7.5,7.44,9.36,11.46.92,1.98,1.59,3.89,2.06,5.57.96,3.38,1.15,5.78,1.15,5.78,2.16,3.04,4.16,7.17,5.85,11.21.86,2.07,1.64,4.1,2.3,5.96,1.64,4.58,2.63,8.05,2.63,8.05l5,11.54.99,2.27s2.73,3.06,5.25,6.69c3.48,5.05,6.56,11.22,1.34,11.91Z"/><path class="cls-1" d="M228.37,130.91c-11.59-8.22-23.53-16.02-36.2-22.49-6.45-3.29-13.09-6.27-19.89-8.75-6.8-2.48-13.74-4.51-20.71-6.45-1.31-.36-1.04-2.23.35-2.11,8.26.75,16.34,3.04,24.1,5.93,13.83,5.15,26.8,12.36,39.19,20.32,2.33,1.5,4.64,3.03,6.93,4.58l.99,2.27s2.73,3.06,5.25,6.69Z"/><path class="cls-1" d="M214.51,102.36c-6.61-4.24-13.39-8.22-20.39-11.79-6.45-3.3-13.09-6.27-19.89-8.74-6.81-2.49-13.75-4.51-20.71-6.46-1.31-.36-1.04-2.23.34-2.11,8.27.75,16.35,3.05,24.11,5.93,12,4.47,23.35,10.49,34.24,17.21.86,2.07,1.64,4.1,2.3,5.96Z"/><path class="cls-1" d="M205.21,79.41c-3.06-1.77-6.15-3.45-9.3-5.05-6.45-3.29-13.08-6.27-19.89-8.74-6.8-2.49-13.74-4.52-20.71-6.46-1.3-.36-1.04-2.23.35-2.11,8.26.75,16.34,3.04,24.1,5.93,8.07,3,15.85,6.71,23.39,10.86.92,1.98,1.59,3.89,2.06,5.57Z"/><polygon class="cls-11" points="0 30.47 0 108.36 59.68 109.21 74.05 47.97 0 30.47"/><path class="cls-4" d="M39.62,108.61l31.43,5.4s12.57-52.23,6.29-70.24l-30.53-2.7s-.9,54.03-7.18,67.53Z"/><path class="cls-4" d="M263.24,217.11c0,1.24-3.22,2.25-7.18,2.25s-7.18-1.01-7.18-2.25,3.22-2.25,7.18-2.25,7.18,1.01,7.18,2.25Z"/></g></g></svg>