<?xml version="1.0" encoding="UTF-8"?><svg id="Layer_2" xmlns="http://www.w3.org/2000/svg" viewBox="0 0 315.49 353.77"><defs><style>.cls-1{stroke:#e65125;}.cls-1,.cls-2,.cls-3,.cls-4,.cls-5,.cls-6,.cls-7,.cls-8,.cls-9,.cls-10,.cls-11,.cls-12{fill:none;stroke-linecap:round;stroke-linejoin:round;stroke-width:3.41px;}.cls-13{fill:#e65125;}.cls-2{stroke:#eb6734;}.cls-14{fill:#fbbb93;}.cls-3{stroke:#fee1c5;}.cls-4{stroke:#61b1c1;}.cls-15{fill:#faaa47;}.cls-16{fill:#f1f1f4;}.cls-17{fill:#eb6734;}.cls-18{fill:#61b1c1;}.cls-5{stroke:#372d4f;}.cls-19{fill:#02588c;}.cls-20{fill:#635683;}.cls-6{stroke:#f1f1f4;}.cls-7{stroke:#fdc57f;}.cls-8{stroke:#ed8b45;}.cls-9{stroke:#02588c;}.cls-10{stroke:#faaa47;}.cls-21{fill:#372d4f;}.cls-22{fill:#3885a3;}.cls-23{fill:#5b2f28;}.cls-24{fill:#fdc57f;}.cls-11{stroke:#704844;}.cls-25{fill:#fee1c5;}.cls-12{stroke:#3885a3;}</style></defs><g id="Layer_1-2"><path class="cls-24" d="M181.31,20.6c1.72.19,9.42,6.98,8.8,11.86-.34,2.67-1.81,5.12-1.99,7.81-.25,3.86,2.19,7.34,4.7,10.28,6.52,7.65,14.35,14.19,23.05,19.25.93.54,1.91,1.08,2.98,1.12,1.07.05,3.41-.19,3.49-.69,4.14,3.51,6.28,5.25,10.9,8.48-.15.66-.98,3.67-.46,5.28s1.71,2.91,2.9,4.13c12.23,12.59,26.41,23.18,41.51,32.11,1.64.97,3.33,1.93,5.2,2.3s4.6.12,5.95-1.23c0,0,15.44-8.71,26.13-35.01l.39-.79c.96-1.65.75-3.77-.07-5.49-.82-1.72-2.18-3.11-3.53-4.45-12.44-12.37-26.27-23.43-41.52-32.1-1.48-.84-3.03-1.67-4.72-1.77-1.69-.09-4.4,1.46-5,1.78-4.29-3.66-6.52-5.29-10.95-8.41.46-.21.1-2.53-.21-3.55-.32-1.03-1.08-1.84-1.84-2.6-7.08-7.14-15.38-13.07-24.43-17.46-3.48-1.69-7.46-3.17-11.13-1.96-2.56.84-4.56,2.89-7.06,3.89-4.56,1.83-13.07-3.91-13.69-5.53l-9.38,12.75Z"/><path class="cls-19" d="M186.14.03c2.69,1.89,5.26,3.95,8.19,6.25.29,3.9-.71,7.88-2.82,11.17-2.11,3.29-5.31,5.87-9.01,7.57-2.82-3.26-5.95-6.08-8.77-9.34,3.54-5.09,7.65-10.44,12.42-15.65Z"/><path class="cls-22" d="M172.76,12.62c2.18-4.99,5.58-9.69,10.47-12.09.92-.45,2.07-.8,2.92-.23,1.01.68.92,2.2.57,3.37-1.23,4.1-4.18,7.44-7.29,10.37-.69.65-1.4,1.29-2.25,1.72-.85.42-1.85.61-2.75.3-1.4-.48-2.2-2.25-1.68-3.44Z"/><path class="cls-9" d="M188.49,1.88c2.57,1.93,3.78,2.79,6.34,4.47.56,3.76-.05,7.08-1.85,10.43-1.81,3.35-6.25,6.75-9.7,8.35"/><path class="cls-12" d="M187.35,6.86c1.52,1.27,3.04,2.54,4.55,3.81"/><path class="cls-12" d="M185.6,10.19c1.77,1.46,3.38,3.09,4.82,4.88"/><path class="cls-12" d="M183.25,13.43c1.56,1.4,3.01,2.94,4.32,4.58"/><path class="cls-12" d="M180.17,16.23c1.34,1.55,2.69,3.09,4.03,4.64"/><path class="cls-3" d="M199.13,18.37c1.57.93,3.52.99,5.32.69,1.8-.3,3.53-.93,5.32-1.31,6.31-1.33,13.23.81,17.69,5.46"/><path class="cls-3" d="M258.66,48.74c3.39-.95,7.08-.25,10.28,1.23,3.2,1.48,6,3.68,8.77,5.86"/><path class="cls-3" d="M282.24,58.11c2.21,1.68,4.41,3.36,6.62,5.05"/><path class="cls-3" d="M257.96,100.86c5.57,3.88,11.14,7.77,16.72,11.65"/><path class="cls-10" d="M311.15,84.08c-13.96,5.85-24.76,18.71-28.11,33.47"/><path class="cls-10" d="M222.64,70.17c3.67,2.9,7.34,5.79,11.14,8.91-.79,3.16.33,6.56,2.22,9.21,1.9,2.65,4.51,4.7,7.08,6.7,7.94,6.19,15.89,12.38,23.83,18.58"/><path class="cls-10" d="M203.72,13.11c3.54-2.44,7.88-3.75,12.18-3.53,7.8.4,14.46,5.51,20.56,10.4"/><path class="cls-10" d="M249.11,34.92c3.39,2.64,6.78,5.28,10.17,7.92"/><path class="cls-3" d="M176.87,15.73c2.79-1.52,5.23-3.69,7.06-6.29"/><path class="cls-17" d="M178.71,85.41c-3.36-7.77-7.83-15.05-13.21-21.6-.31-.39-.63-.77-.96-1.15-1.16-1.38-2.37-2.73-3.62-4.04-.36-.38-.72-.75-1.09-1.13-.4-.4-.8-.8-1.2-1.2-.51-.49-1.01-.97-1.52-1.46-.32-.29-.63-.58-.95-.87-.84-.77-1.69-1.52-2.55-2.24-1.3-1.11-2.62-2.17-3.98-3.18-3.12-2.36-6.38-4.52-9.78-6.45-4.05-2.31-8.37-4.37-11.58-7.75s-5.09-8.55-3.15-12.79c-19.65,6.65-33.16,24.57-43.47,42.57-3.42,5.97-6.67,12.11-10.04,18.16-6.77,12.2-14.04,24.04-24.2,33.47-4.77,4.42-10.09,8.23-14.65,12.86-4.56,4.64-8.41,10.33-9.26,16.78-.7,5.35.86,10.94,4.13,15.22.73.97,1.55,1.86,2.45,2.68,4.9,4.44,11.83,4.62,18.27,3.12-1.85,2.99-2.12,6.42-1.35,9.57.96,4.02,3.62,7.59,6.87,9.2,12.5,6.21,28.49-3.56,35.43-12.77.51.27,1.03.49,1.55.69.64.24,1.28.43,1.93.57,1.06.23,2.13.34,3.21.33,6.85-.04,14.02-4.59,20.3-10.14,1.75-1.55,3.38-3.23,4.9-5,.03-.04.06-.08.1-.12,1.61-1.87,3.11-3.85,4.54-5.89.01-.01.02-.03.03-.05,2.87-4.09,5.46-8.42,8.13-12.66.68-1.08,1.36-2.15,2.06-3.21,2.13-3.25,4.46-6.48,7.06-9.44t.02-.02c.28-.34.58-.68.9-1.01.61-.68,1.25-1.35,1.9-1.98.32-.34.64-.65.98-.95.33-.33.67-.63,1.01-.92.61-.56,1.23-1.08,1.87-1.58,1.54-1.22,3.16-2.32,4.87-3.27.32-.18.66-.36.99-.53.35-.18.7-.36,1.06-.52.53-.25,1.06-.48,1.61-.69.34-.15.68-.27,1.03-.39,0,0,.01-.01.02-.01.42-.16.85-.3,1.28-.43.54-.16,1.08-.31,1.63-.45s1.11-.27,1.67-.39c4.98-1.1,10.17-1.78,13.8-5.22,3.07-2.9,4.35-7.33,4.21-11.55s-1.57-8.29-3.25-12.17ZM52.33,157.05c-2.37.18-13.48,4.87-13.97-6.7-.26-5.99,8.3-13.87,13.01-16.87,4.58-2.92,11.36-2.79,16.49-1.04-4.34,10.11-7.38,18.07-15.53,24.61ZM81.58,168.15c-3.51,2.91-7.15,5.65-10.9,8.22-2.16,1.47-4.65,2.95-7.21,2.45-2.42-.47-4.22-2.71-4.78-5.11s-.07-4.92.7-7.26c1.8-5.43,5.12-10.2,8.4-14.88,2.21-3.17,4.53-6.44,7.86-8.42s7.8-2.01,11.41-.04c4.44,2.44,5.68,8.61,3.99,13.39-1.7,4.78-5.57,8.42-9.47,11.65Z"/><path class="cls-8" d="M52.36,184.51c-3.61-2.16-5.53-6.52-5.55-10.73-.02-4.21,1.63-8.27,3.84-11.86,2.21-3.58,4.97-6.79,7.47-10.17,7.5-10.13,12.79-22.58,10.87-35.14-8.55,1.62-16.59,5.84-22.79,11.95"/><path class="cls-1" d="M30.14,164.19c-4.9-5.38-5.97-13.5-4.09-20.53,1.88-7.03,6.35-13.11,11.4-18.35,5.05-5.24,10.76-9.81,15.87-15,8.04-8.17,14.56-17.9,18.54-28.64"/><path class="cls-8" d="M120.92,30.8c-12.62,7.85-22.57,19.9-27.9,33.77"/><path class="cls-8" d="M89.59,71.02c-2.23,6.21-5.96,11.87-10.78,16.37"/><path class="cls-8" d="M101.92,162.46c14.4-17.23,21.51-40.37,19.25-62.72"/><path class="cls-8" d="M109.79,129.59c7.75-16.96,9.27-36.69,4.2-54.63l-19.22,12.84"/><path class="cls-13" d="M165.5,63.81c.15,16.97-.38,33.79-1.56,50.54-1.12.25-2.22.52-3.29.84-6.97,2.12-12.7,6.74-17.54,12.3-4.04-27.37-3.28-55.18,2.37-81.9,7.52,5.05,14.28,11.21,20.02,18.22Z"/><path class="cls-6" d="M157.42,116.28c-7.72,1.9-14.06,7.54-18.72,13.98-4.67,6.44-7.95,13.75-11.8,20.71-3.85,6.96-8.44,13.76-14.98,18.29-6.53,4.53-15.36,6.43-22.58,3.09"/><path class="cls-20" d="M252.82,195.41c1.42-5.37,7.72-7.87,12.65-5.31,18.07,9.39,32.19,26.25,38.03,45.78,2.12,7.1,3.19,14.64,1.91,21.94s-5.12,14.33-11.28,18.44c-3.52,2.35-7.8,3.7-12.01,3.23-5.81-.64-10.89-4.71-13.72-9.82-2.83-5.11-3.64-11.14-3.36-16.97.3-6.3,1.79-12.48,2.34-18.76s.04-12.94-3.3-18.29c-1.91-3.07-4.64-5.52-7-8.27-2.35-2.74-4.42-6.01-4.53-9.62-.02-.77.07-1.56.28-2.35Z"/><path class="cls-5" d="M271.73,262.98c2,4.58,6.87,8.18,11.81,7.41,3.17-.49,5.9-2.67,7.66-5.35,3.75-5.7,3.45-13.12,2.36-19.87-1.43-8.91-4-17.68-8.12-25.71-4.13-8.03-9.84-15.3-17.04-20.75-1.03-.78-2.41-1.54-3.52-.88-.73.44-1.02,1.39-.92,2.24.1.85.52,1.62.93,2.37,1.76,3.21,3.51,6.42,5.27,9.63"/><path class="cls-5" d="M282.93,259.71c1.69-13.23-.47-26.92-6.16-38.98"/><path class="cls-21" d="M278.4,244.32c-.56-2.39-1.19-4.92-3.08-6.49-1.88-1.57-4.81-2.01-6.83-.62-.78.54-1.33,1.25-1.76,2.05-1.39,2.55-1.55,6.08-3.62,8.23-2.42,2.52-6.88,2.58-8.7,5.56-1.21,1.99-.72,4.63.43,6.66,2.3,4.05,7.33,6.74,11.84,6.11.91-.13,1.81-.39,2.65-.81.94-.47,1.8-1.03,2.58-1.66,6.24-5.05,7.47-14.79,6.49-19.03ZM267.67,259.63c-.31.3-1.22.63-2.31.65-.85.01-1.8-.17-2.67-.7-.89-.54-1.69-1.33-1.98-2.34-.19-.68-.12-1.45.3-2.01.4-.53,1.08-.8,1.75-.85.67-.04,1.33.13,1.97.32.08.03.17.05.25.08.66.22,1.3.48,1.86.88.63.44,1.15,1.07,1.36,1.82.2.75.03,1.61-.53,2.15Z"/><path class="cls-19" d="M219.15,95.07c14.84,11.04,28.27,25.76,36.18,44.41,7.91,18.65,11.35,39.18,9.96,59.4-13.26,3.61-26.55,8.48-39.58,14.47-12.89-32.34-36.52-59.47-50.4-91.89,13.98-10.92,28.1-17.08,43.83-26.38Z"/><path class="cls-20" d="M229.12,210.8c-1.11,2.11-3.98,2.79-6.3,2.16-2.32-.64-4.2-2.28-5.96-3.9-22.16-20.52-38.56-47.65-43.68-77.24-.32-1.88-.6-3.81-.22-5.67s1.55-3.67,3.35-4.33c2.88-1.05,5.88,1.08,8.14,3.14,19.16,17.46,33.7,39.85,41.77,64.35,2.19,6.66,6.54,14.57,2.89,21.5Z"/><path class="cls-5" d="M215.26,199.9c-14.41-15.2-25.51-33.79-30.52-54.13-.26-1.08-.51-2.19-.36-3.29.16-1.1.8-2.19,1.85-2.57,1.81-.65,3.56,1.02,4.73,2.54,7.12,9.18,13.43,19,18.82,29.29"/><path class="cls-5" d="M219.7,197.44c-1.04-5.04-2.53-9.98-4.46-14.75"/><path class="cls-5" d="M206.93,181.86c-3.65-6.69-7.3-13.38-10.95-20.06"/><path class="cls-4" d="M238.38,194.95c5.88-1.88,11.76-3.77,17.53-5.74,0-2.09-.42-4.19-1.24-6.11"/><path class="cls-4" d="M247.82,191.16c-.31-1.67-.61-3.33-.92-5"/><path class="cls-4" d="M252.02,177.56c-5.26,1.9-10.52,3.8-15.78,5.7"/><path class="cls-4" d="M248.55,164.43c-.3,1.53-.64,3.1-1.46,4.43-.82,1.33-2.25,2.39-3.81,2.37-1.63-.03-3.01-1.19-4.57-1.69-1.76-.57-3.78-.23-5.26.87-1.48,1.1-2.39,2.94-2.36,4.78"/><path class="cls-4" d="M244.49,157.68c-5.38,2.45-10.77,4.9-16.15,7.35"/><path class="cls-4" d="M240.74,149.3c-5.21,2.68-10.55,5.11-15.99,7.25"/><path class="cls-4" d="M235.05,160.97c-.95-2.53-1.81-5.09-2.56-7.68"/><path class="cls-18" d="M216.53,137.7c-3.94-2.83-6.99-6.88-8.64-11.44-1.65-4.56-1.89-9.62-.68-14.32,3.84-.6,7.62.67,10.32,3.1,2.7,2.43,4.33,5.9,4.86,9.49.52,3.59-.01,7.28-1.38,11.43,2.83.98,5.33,2.87,7.05,5.32-1.16.35-2.42.26-3.59-.06s-2.27-.85-3.61-1.37c-.27,1.89-1.03,3.71-2.18,5.24-1.18-2.05-1.7-4.47-2.15-7.38Z"/><path class="cls-9" d="M212.95,118.22c.2-.08.4-.15.61-.23"/><path class="cls-12" d="M175.93,122.37c13.52-11.35,28.62-20.81,45.18-27.48,15.39,11.99,27.65,27.96,35.27,45.92,7.62,17.96,10.58,37.87,8.52,57.27"/><path class="cls-23" d="M236.63,331.52c-10.43-23.6-27.18-55.5-41.28-75.48-37.78-14.72-76.67-26.58-114.92-35.69-24.31,14.71-49.1,24.57-72.6,41.58,73.73,26.91,156.79,59.85,228.81,69.59Z"/><path class="cls-16" d="M142.94,279.37c-5.55-3.88-12.45-7.61-18-11.49-4.69,2.53-9.63,5.29-14.58,8.06-9.06-33.5-15.28-66.6-18.99-99.98,6.78-10.87,12.97-22.41,19.16-33.96,8.6,13,15.64,24.71,22.55,35.54,4.97,33.48,9.26,67.12,9.86,101.83Z"/><path class="cls-25" d="M143.03,279.91c19.71-2.18,39.43-4.36,59.14-6.53-2.29-35.21-4.81-69.16-7.34-103.11-8.23-11.07-16.52-21.92-24.81-32.76-20.37,1.29-39.58,2.82-59.39,4.72,7.35,11.65,14.69,23.29,21.95,33.99,1.57,34.92,4.92,69.76,10.44,103.7Z"/><path class="cls-3" d="M125.14,178.04c-3.72-2.23-7.44-4.45-11.16-6.68-6.24.95-12.4,2.51-18.34,4.66"/><path class="cls-3" d="M109.33,144.14c-6.52,10.37-13.05,20.74-19.44,30.44,6.42,34.09,12.83,68.18,19.25,102.27"/><path class="cls-6" d="M188.07,171.58c-13,2.11-26.11,3.59-39.25,4.44"/><path class="cls-14" d="M138.73,141.6c.33,3.63.65,7.27.98,10.9,2.61,1.29,5.19,1.99,7.76,2.16,2.57.17,5.16-.17,7.69-.68,2.35-.47,4.94-1.27,6.05-3.39-.14-3.81-.26-7.16-.47-10.31-6.89-.96-13.94-.8-22.01,1.32Z"/><path class="cls-25" d="M141.44,134.72c5.99-2.51,13.24-1.73,18.56,1.98.8.56,1.64,1.39,1.47,2.35-.16.86-1.06,1.35-1.87,1.67-5.38,2.12-11.33,2.13-17.1,1.8-1.39-.08-2.96-.26-3.81-1.36-.76-.98-.66-2.42-.08-3.51.59-1.09,1.34-2.3,2.82-2.92Z"/><path class="cls-8" d="M190.52,213.41c-.45-4.17-.67-8.37-.98-12.73-1.43,1.93-2.85,3.87-5.11,6.39-1.44-2.74-3.29-5.26-6.71-7.46.24,5.53.15,11.08-.29,16.6"/><path class="cls-8" d="M171.23,199.9c.13,5.73.26,11.45.38,17.18"/><path class="cls-8" d="M163.77,200.52c.42,5.01.83,10.02,1.25,15.03-2.03,0-4.05,0-6.08,0"/><path class="cls-8" d="M151.38,202.09c.54,5.38,1.08,10.77,1.62,16.15"/><path class="cls-8" d="M144.97,205.48c2.12,2.22,4.23,4.43,4.91,6.19-1.73,2.14-3.47,4.27-5.2,6.41"/><path class="cls-24" d="M143.03,279.91c-1.87-11.47-3.46-23.06-4.85-34.7,3.8-2.43,8.32-3.77,12.84-3.65,6.92.18,13.97,3.49,20.51,1.24,7.28-2.51,10.77-10.82,17.12-15.18,2.98-2.04,6.57-3.03,10.18-3.02,1.15,16.07,2.28,32.29,3.35,48.79-19.71,2.18-39.43,4.36-59.14,6.53Z"/><path class="cls-13" d="M158.34,308.3c-4.58-5.12-7.31-10.33-8.59-17.09,16.84-16.68,32.15-34.08,46.79-52.03-1.91-2.13-3.25-4.12-3.63-6.3.68.02,1.35.05,2.03.07,10.57,2.42,20.24,7.81,28.26,15.12,18.94,17.27,21.71,28.46,21.42,30.04-.19,1.04-5.61-.97-5.47-1.26-16.32,12.96-32.74,25.94-49.17,39.49-1.09-.2-30.76-7.06-31.64-8.04Z"/><path class="cls-2" d="M221.61,282.11c-10.48-5.01-19.85-12.31-27.26-21.24"/><path class="cls-2" d="M214.71,288.11c-12.02-4.54-22.67-12.65-30.23-23.05"/><path class="cls-2" d="M206.27,294.18c-11.13-3.6-20.79-11.53-26.5-21.73"/><path class="cls-2" d="M196.69,300.51c-10.07-4.66-18.88-12.03-25.25-21.12"/><path class="cls-2" d="M188.86,306.15c-7.99-3.23-15.11-8.58-20.44-15.36"/><path class="cls-11" d="M195.63,239.76c-15.24,17.43-30.47,34.87-45.71,52.3"/><path class="cls-25" d="M240.32,273.44c-8.65-16.9-23.82-30.36-42.16-36.65,3.72,6.18,9.25,11.02,14.69,15.76,8.7,7.58,17.45,15.19,27.47,20.89Z"/><path class="cls-2" d="M244.63,278.39c-22.2-7.31-41.29-23.6-52.01-44.37"/><path class="cls-15" d="M236.23,331.61c-3.25,5.96-6.5,11.92-9.75,17.88-.06.02-.13.04-.19.07-.11.03-.22.07-.33.11-1.63.57-3.18,1.4-4.58,2.4H2.15c.96-5.79,1.9-11.58,2.83-17.36,1.94-12.04,3.82-24.08,5.71-36.11,0-.02.01-.03.01-.05.65-4.17,1.27-8.57-.21-12.52-.69-1.82-2-3.48-3.61-4.61,1.11-6.21,2.21-12.42,3.3-18.61h0c1.39-.11,15.05,3.76,35.03,9.71,29.79,8.87,73.63,22.36,111.81,34.23,4.98,1.54,9.86,3.06,14.6,4.54.02.02.05.02.07.02,3.48,1.08,6.89,2.15,10.2,3.18,27.94,8.71,49.27,15.44,53.61,16.87.37.12.61.21.73.25Z"/><path class="cls-2" d="M234.79,332.49c-2.86,5.74-5.71,11.48-8.57,17.22-32.62-4.53-64.89-11.59-96.42-21.09"/><path class="cls-2" d="M10.64,260.08c-.25.87-.5,1.75-.75,2.62-1.69,6.08-3.2,12.21-4.52,18.37,4.07,4.88,5.36,11.02,5.33,17.48-.02,5.39-.95,11.01-1.96,16.3-1.25,6.62-2.51,13.24-3.76,19.86-1.1,5.79-2.19,11.57-3.28,17.36"/><path class="cls-2" d="M23.77,289.21c23.77,9.24,47.53,18.48,71.3,27.72"/><path class="cls-7" d="M59.1,234.43c-15.59,9.03-31.17,18.07-48.52,26.18,62.07,21.87,125.03,41.29,188.69,58.2"/></g></svg>