<svg xmlns="http://www.w3.org/2000/svg" viewBox="0 0 885 448"><path d="M862.6 102.1L495.4 6.9c-34.7-9-71-9-105.7 0L22.4 102.1C9.2 105.5 0 117.4 0 131v186c0 13.6 9.2 25.5 22.4 28.9L389.6 441c34.7 9 71 9 105.7 0l367.2-95.1c13.2-3.4 22.4-15.3 22.4-28.9V131c.1-13.6-9.1-25.5-22.3-28.9z"/><path d="M606.7 172.4c-37.3 0-66.5 29.5-66.5 67.1 0 39.3 28.6 66.8 69.5 66.8 22.6 0 40.7-7.5 53.9-22.4l.8-1c.8-.9.7-2.3-.1-3.1l-14.5-14.2c-.4-.4-1-.7-1.7-.7-.6 0-1.2.3-1.6.7l-1 1.1c-6.1 6.8-17.3 15-35.8 15-21.9 0-37-11.8-41-31.8h99.2c2 0 3.6-1.6 3.6-3.5.8-22.4-5.9-42.1-18.8-55.6-11.7-12.1-27.6-18.4-46-18.4zm-37.6 54.1c4.3-18.6 18.5-30 37.6-30 19.8 0 33.3 11.1 36.4 30h-74zm-108.5-86.2c-3.8-.3-8.1-.3-11-.3h-44.7c-2.2 0-4 1.8-4 4v155.9c0 2.2 1.8 4 4 4h18.3c2.2 0 4-1.8 4-4V267c7.3 0 14.4-.2 21.2-.4 5.8-.2 12.3-.5 18.5-1.8 32.7-6.9 52.7-33.1 50.9-66.8-1.7-31.5-25.2-55.2-57.2-57.7zm31.4 64.9c-1.7 18.2-13 31-29.6 33.5-8.3 1.3-17.2 1.5-25.7 1.6-3.2.1-6.4.1-9.6.3v-74.3h19.5c7.9-.1 15.3-.1 22.5 2.8 15.6 6.3 24.4 20.1 22.9 36.1zm-179.1-64.9c-3.8-.3-8.1-.3-11-.3h-44.7c-2.2 0-4 1.8-4 4v155.9c0 2.2 1.8 4 4 4h18.3c2.2 0 4-1.8 4-4V267c7.3 0 14.4-.2 21.2-.4 5.8-.2 12.3-.5 18.5-1.8 32.7-6.9 52.7-33.1 50.9-66.8-1.6-31.5-25.2-55.2-57.2-57.7zm31.5 64.9c-1.7 18.2-13 31-29.6 33.5-8.3 1.3-17.2 1.5-25.7 1.6-3.2.1-6.4.1-9.6.3v-74.3H299c7.9-.1 15.3-.1 22.5 2.8 15.6 6.3 24.3 20.1 22.9 36.1zm237.9-50.1c1.7 2.5 4.6 4 7.6 4h20.2c2.3 0 3.6-2.6 2.3-4.4l-17.6-25.3c-1.9-2.7-5.1-4.4-8.4-4.4h-19.8c-2.3 0-3.6 2.6-2.3 4.4l18 25.7zm217.3 122.5h-71.3V144c0-2.2-1.8-4-4-4h-18.2c-2.2 0-4 1.8-4 4v155.9c0 2.2 1.8 4 4 4h93.5c2.2 0 4-1.8 4-4v-18.3c0-2.2-1.8-4-4-4zM160.5 141.8c-.4-.8-1.1-1.8-2.4-1.8h-3.6c-1.2 0-2 .9-2.3 1.8-15.9 36.2-67.4 156.5-67.4 156.5-1.1 2.6.8 5.6 3.7 5.6h19.6c1.6 0 3.1-1 3.7-2.4l8.3-19.4h72.6l8.3 19.4c.6 1.5 2.1 2.4 3.7 2.4h19.6c2.9 0 4.8-2.9 3.7-5.6-.1 0-51.6-120.2-67.5-156.5zm-29.4 114c5.9-14.1 22.7-52.6 25.2-58.4 2.5 5.8 19.2 44.3 25.2 58.4h-50.4z" fill="#FFF"/></svg>